<svg xmlns="http://www.w3.org/2000/svg" width="24.243" height="29.737" viewBox="0 0 24.243 29.737">
  <g id="apple-logo" transform="translate(-2.104)">
    <g id="Group_31" data-name="Group 31" transform="translate(2.104)">
      <path id="Path_21" data-name="Path 21" d="M17.123,0h.212a6.368,6.368,0,0,1-1.6,4.8,4.971,4.971,0,0,1-4.376,2.054A6.177,6.177,0,0,1,12.988,2.2,7.05,7.05,0,0,1,17.123,0Z" transform="translate(0.72)" fill="#fff"/>
      <path id="Path_22" data-name="Path 22" d="M26.347,20.148v.059a17.3,17.3,0,0,1-2.476,4.773c-.944,1.3-2.1,3.048-4.167,3.048-1.785,0-2.971-1.148-4.8-1.179-1.935-.031-3,.96-4.769,1.209h-.6a5.388,5.388,0,0,1-3.112-2.144A18.785,18.785,0,0,1,2.1,15.107V13.776A8.715,8.715,0,0,1,5.909,6.623a6.426,6.426,0,0,1,4.314-1,10.853,10.853,0,0,1,2.114.606,5.838,5.838,0,0,0,2.113.633,5.072,5.072,0,0,0,1.482-.453A9.119,9.119,0,0,1,20.7,5.564a6.616,6.616,0,0,1,4.861,2.9,6.239,6.239,0,0,0-3.169,6.189A6.39,6.39,0,0,0,26.347,20.148Z" transform="translate(-2.104 1.679)" fill="#fff"/>
    </g>
  </g>
</svg>
