<svg id="user_2_" data-name="user (2)" xmlns="http://www.w3.org/2000/svg" width="55" height="55" viewBox="0 0 55 55">
  <g id="Group_98" data-name="Group 98">
    <path id="Path_40" data-name="Path 40" d="M27.5,0A27.485,27.485,0,0,0,6.3,45c.01.014.011.031.022.044A27.492,27.492,0,0,0,16.707,52.79l.137.06c.322.136.647.261.973.384.128.049.257.1.387.145q.422.151.85.288c.182.059.365.116.549.171q.378.113.76.216c.224.06.449.116.675.171s.457.11.688.159c.257.055.516.1.776.151.209.038.417.079.628.113.289.047.579.083.871.121.188.024.375.051.564.071.33.035.663.06,1,.082.155.011.309.028.465.036Q26.755,55,27.5,55c.5,0,.988-.015,1.477-.04.156-.008.31-.025.465-.036.334-.024.666-.048,1-.083.189-.02.376-.048.564-.071.292-.038.582-.074.871-.121.21-.034.419-.074.628-.113.259-.048.519-.1.776-.151.23-.049.458-.1.688-.159s.451-.111.675-.17c.255-.068.508-.141.76-.216.184-.055.367-.113.549-.171q.428-.137.85-.288c.129-.047.258-.1.387-.145.327-.123.652-.249.974-.384l.137-.06a27.5,27.5,0,0,0,10.384-7.749c.011-.013.012-.031.022-.044A27.488,27.488,0,0,0,27.5,0ZM38.644,50.618l-.04.02c-.327.158-.66.306-1,.451l-.227.1q-.44.184-.889.351c-.125.047-.249.093-.375.137-.265.094-.531.185-.8.271-.167.053-.335.1-.5.153-.238.071-.478.14-.72.2-.2.054-.409.1-.614.152s-.43.1-.647.149c-.237.05-.477.094-.715.137-.193.036-.386.073-.581.1-.269.042-.54.076-.81.11-.171.022-.342.048-.515.066-.309.033-.621.054-.931.076-.138.009-.276.025-.416.032q-.681.036-1.365.037t-1.364-.037c-.139-.007-.277-.022-.416-.032-.312-.021-.622-.043-.931-.076-.173-.018-.344-.044-.515-.066-.27-.034-.542-.068-.81-.11-.2-.031-.388-.069-.581-.1-.239-.043-.479-.087-.715-.137-.217-.046-.433-.1-.647-.149s-.411-.1-.614-.152c-.241-.064-.481-.134-.72-.2-.168-.05-.335-.1-.5-.153q-.4-.129-.8-.271l-.375-.137q-.448-.168-.889-.351c-.076-.031-.15-.064-.226-.1-.335-.144-.668-.293-1-.451l-.04-.02a25.791,25.791,0,0,1-8.316-6.411A20.232,20.232,0,0,1,21.282,30.331c.127.078.26.148.391.221.077.043.153.089.231.13.273.145.55.281.833.4.217.1.442.176.666.258l.132.049a11.7,11.7,0,0,0,7.928,0l.132-.049c.224-.082.448-.163.665-.258.283-.122.56-.258.833-.4.078-.042.154-.087.231-.13.131-.073.265-.143.393-.222A20.238,20.238,0,0,1,46.96,44.207,25.817,25.817,0,0,1,38.644,50.618ZM17.417,20.167a10.083,10.083,0,1,1,15.569,8.449,9.71,9.71,0,0,1-1.123.628c-.046.022-.091.045-.137.066a10.314,10.314,0,0,1-8.452,0c-.046-.021-.092-.044-.137-.066a9.634,9.634,0,0,1-1.123-.628A10.077,10.077,0,0,1,17.417,20.167Zm30.918,22.3A22.087,22.087,0,0,0,35.458,29.012a11.917,11.917,0,1,0-15.916,0A22.089,22.089,0,0,0,6.666,42.463,25.66,25.66,0,1,1,53.167,27.5,25.521,25.521,0,0,1,48.335,42.463Z" fill="#fff"/>
  </g>
</svg>
