<svg xmlns="http://www.w3.org/2000/svg" width="26.764" height="26.751" viewBox="0 0 26.764 26.751">
  <g id="Group_94" data-name="Group 94" transform="translate(-3801.171 500)">
    <ellipse id="Ellipse_12" data-name="Ellipse 12" cx="13.382" cy="13.296" rx="13.382" ry="13.296" transform="translate(3801.171 -499.841)" fill="#fff"/>
    <g id="facebook-circular-logo" transform="translate(3801.171 -500)">
      <path id="Path_27" data-name="Path 27" d="M13.382.349A13.375,13.375,0,0,0,11.15,26.912V16.523H7.922V12.784H11.15V10.028c0-3.2,1.954-4.942,4.807-4.942a26.641,26.641,0,0,1,2.882.147V8.576H16.861c-1.552,0-1.851.737-1.851,1.819v2.386h3.7l-.483,3.739H15.01V27A13.376,13.376,0,0,0,13.382.349Z" transform="translate(0 -0.349)" fill="#1976f2"/>
    </g>
  </g>
</svg>
