<svg id="search" xmlns="http://www.w3.org/2000/svg" width="26.764" height="26.764" viewBox="0 0 26.764 26.764">
  <path id="Path_23" data-name="Path 23" d="M5.932,147.214,5,150.692l-3.405.072a13.406,13.406,0,0,1-.1-12.5h0l3.031.556,1.328,3.013a7.986,7.986,0,0,0,.075,5.377Z" transform="translate(0 -131.04)" fill="#fbbb00"/>
  <path id="Path_24" data-name="Path 24" d="M274.482,208.176a13.377,13.377,0,0,1-4.771,12.936h0l-3.818-.195-.54-3.374a7.976,7.976,0,0,0,3.432-4.073h-7.156v-5.294h12.854Z" transform="translate(-247.952 -197.294)" fill="#518ef8"/>
  <path id="Path_25" data-name="Path 25" d="M50.673,317.052h0a13.387,13.387,0,0,1-20.165-4.094l4.337-3.55a7.959,7.959,0,0,0,11.469,4.075Z" transform="translate(-28.914 -293.235)" fill="#28b446"/>
  <path id="Path_26" data-name="Path 26" d="M49.052,3.081,44.716,6.63A7.958,7.958,0,0,0,32.984,10.8l-4.36-3.569h0A13.385,13.385,0,0,1,49.052,3.081Z" transform="translate(-27.128)" fill="#f14336"/>
</svg>
