<svg xmlns="http://www.w3.org/2000/svg" width="285" height="281" viewBox="0 0 285 281">
  <g id="Group_126" data-name="Group 126" transform="translate(-54 -168)">
    <g id="Group_86" data-name="Group 86" transform="translate(209.408 4.674)">
      <rect id="Rectangle_72" data-name="Rectangle 72" width="285" height="281" rx="4" transform="translate(-155.408 163.326)" fill="#3c464f"/>
    </g>
    <path id="qr" d="M125,29.3V48.828H105.469V29.3ZM105.469,144.043v27.832H125V144.043ZM164.063,250V230.469H144.531V210.938H125V250Zm39.063-145.02H144.531v19.531h58.594Zm0,39.063h27.344V124.512H203.125Zm0,27.832v19.531H250V144.043H230.469v27.832ZM144.531,0H125V29.3h19.531ZM125,87.891h19.531V48.828H125V68.359H105.469v56.152H125ZM0,104.98v39.063H19.531V124.512h29.3V104.98Zm144.531,39.063V124.512H125v19.531Zm39.063,19.531h19.531V144.043H183.594Zm46.875-39.062H250V104.98H230.469Zm-66.406,19.531H144.531v27.832H125v19.531h39.063Zm-58.594,66.895H125V191.406H105.469Zm58.594-19.531v19.531h39.063V191.406Zm58.594,39.063V210.938H203.125v19.531ZM250,250V230.469H222.656V250Zm-66.406,0h19.531V230.469H183.594Zm-95.7-125.488V104.98H68.359v19.531H48.828v19.531h56.641V124.512Zm0-36.621H0V0H87.891ZM68.359,19.531H19.531V68.359H68.359ZM53.711,34.18H34.18V53.711H53.711ZM250,0V87.891H162.109V0ZM230.469,19.531H181.641V68.359h48.828ZM215.82,34.18H196.289V53.711H215.82ZM0,162.109H87.891V250H0Zm19.531,68.359H68.359V181.641H19.531ZM34.18,215.82H53.711V196.289H34.18Zm0,0" transform="translate(71 184)" fill="#fff"/>
  </g>
</svg>
